<svg width="32" height="32" viewBox="0 0 32 32" fill="none" xmlns="http://www.w3.org/2000/svg">
<path d="M17.47 25.5301C17.3295 25.3895 17.2506 25.1988 17.2506 25.0001C17.2506 24.8013 17.3295 24.6107 17.47 24.4701L25.1887 16.7501L4.99999 16.7501C4.80108 16.7501 4.61031 16.6711 4.46966 16.5304C4.32901 16.3898 4.24999 16.199 4.24999 16.0001C4.24999 15.8012 4.32901 15.6104 4.46966 15.4698C4.61031 15.3291 4.80108 15.2501 4.99999 15.2501L25.1887 15.2501L17.47 7.53009C17.3375 7.38792 17.2654 7.19987 17.2688 7.00557C17.2722 6.81127 17.351 6.62588 17.4884 6.48847C17.6258 6.35106 17.8112 6.27234 18.0055 6.26892C18.1998 6.26549 18.3878 6.33761 18.53 6.47009L27.53 15.4701C27.6704 15.6107 27.7493 15.8013 27.7493 16.0001C27.7493 16.1988 27.6704 16.3895 27.53 16.5301L18.53 25.5301C18.3894 25.6705 18.1987 25.7494 18 25.7494C17.8012 25.7494 17.6106 25.6705 17.47 25.5301Z" fill="#3A5DF8"/>
</svg>
