<svg width="296" height="276" viewBox="0 0 296 276" fill="none" xmlns="http://www.w3.org/2000/svg">
<path d="M139.84 275.176H4.01634C2.95114 275.176 1.92957 274.753 1.17636 273.999C0.423149 273.246 0 272.225 0 271.159V4.80051C0.00927438 3.74142 0.436514 2.72886 1.18872 1.98324C1.94093 1.23761 2.95721 0.819295 4.01634 0.819336H139.84C140.368 0.819336 140.89 0.923221 141.377 1.12506C141.865 1.3269 142.308 1.62274 142.68 1.9957C143.053 2.36865 143.349 2.81141 143.551 3.29869C143.753 3.78598 143.857 4.30824 143.857 4.83568V271.159C143.857 271.687 143.753 272.209 143.551 272.696C143.349 273.184 143.053 273.626 142.68 273.999C142.308 274.372 141.865 274.668 141.377 274.87C140.89 275.072 140.368 275.176 139.84 275.176ZM4.01634 0.960014C2.99835 0.961873 2.02259 1.36709 1.30276 2.08692C0.582925 2.80675 0.177706 3.78252 0.175847 4.80051V271.159C0.177706 272.177 0.582925 273.153 1.30276 273.873C2.02259 274.593 2.99835 274.998 4.01634 275H139.84C140.858 274.998 141.834 274.593 142.554 273.873C143.274 273.153 143.679 272.177 143.681 271.159V4.80051C143.679 3.78252 143.274 2.80675 142.554 2.08692C141.834 1.36709 140.858 0.961873 139.84 0.960014H4.01634Z" fill="#EBEBEB"/>
<path d="M291.983 275.176H156.159C155.094 275.176 154.072 274.753 153.319 273.999C152.566 273.246 152.143 272.225 152.143 271.159V4.80051C152.152 3.74142 152.579 2.72886 153.331 1.98324C154.084 1.23761 155.1 0.819295 156.159 0.819336H291.983C293.048 0.819336 294.07 1.24249 294.823 1.9957C295.576 2.74891 295.999 3.77048 295.999 4.83568V271.159C295.999 271.687 295.896 272.209 295.694 272.696C295.492 273.184 295.196 273.626 294.823 273.999C294.45 274.372 294.007 274.668 293.52 274.87C293.033 275.072 292.511 275.176 291.983 275.176ZM156.159 0.960014C155.141 0.961873 154.165 1.36709 153.445 2.08692C152.726 2.80675 152.32 3.78252 152.318 4.80051V271.159C152.32 272.177 152.726 273.153 153.445 273.873C154.165 274.593 155.141 274.998 156.159 275H291.983C293.001 274.998 293.977 274.593 294.697 273.873C295.416 273.153 295.822 272.177 295.824 271.159V4.80051C295.822 3.78252 295.416 2.80675 294.697 2.08692C293.977 1.36709 293.001 0.961873 291.983 0.960014H156.159Z" fill="#EBEBEB"/>
<path d="M51.6709 80.478L52.8104 82.7781L55.3567 83.1509L53.5138 84.9445L53.9499 87.4767L51.6709 86.281L49.399 87.4767L49.8351 84.9445L47.9922 83.1509L50.5385 82.7781L51.6709 80.478Z" fill="#EBEBEB"/>
<path d="M279.322 188.961L280.462 191.269L283.008 191.641L281.165 193.428L281.601 195.967L279.322 194.771L277.05 195.967L277.486 193.428L275.644 191.641L278.19 191.269L279.322 188.961Z" fill="#F5F5F5"/>
<path d="M234.235 255.847L235.374 258.147L237.914 258.52L236.071 260.313L236.507 262.845L234.235 261.65L231.963 262.845L232.392 260.313L230.556 258.52L233.095 258.147L234.235 255.847Z" fill="#F5F5F5"/>
<path d="M131.076 39.611L131.498 40.4691L132.448 40.6098C132.501 40.6167 132.551 40.6386 132.592 40.6729C132.633 40.7072 132.663 40.7524 132.679 40.8033C132.696 40.8542 132.697 40.9087 132.683 40.9604C132.67 41.0121 132.642 41.0588 132.602 41.0951L131.899 41.7634L132.061 42.7059C132.069 42.7584 132.063 42.8121 132.043 42.8612C132.022 42.9103 131.989 42.9528 131.946 42.9841C131.903 43.0154 131.852 43.0342 131.799 43.0385C131.746 43.0428 131.693 43.0323 131.646 43.0084L130.802 42.5582L129.958 43.0084C129.91 43.0323 129.857 43.0428 129.804 43.0385C129.751 43.0342 129.701 43.0154 129.658 42.9841C129.615 42.9528 129.581 42.9103 129.561 42.8612C129.541 42.8121 129.534 42.7584 129.543 42.7059L129.697 41.7634L128.994 41.0951C128.955 41.0584 128.927 41.0111 128.913 40.9588C128.9 40.9066 128.902 40.8517 128.919 40.8006C128.936 40.7494 128.968 40.7043 129.01 40.6705C129.052 40.6367 129.102 40.6156 129.156 40.6098L130.098 40.4691L130.52 39.611C130.537 39.5503 130.574 39.4968 130.624 39.4587C130.674 39.4205 130.735 39.3999 130.798 39.3999C130.861 39.3999 130.923 39.4205 130.973 39.4587C131.023 39.4968 131.059 39.5503 131.076 39.611Z" fill="#EBEBEB"/>
<path d="M14.9049 244.895L15.3269 245.746L16.2695 245.887C16.323 245.894 16.3733 245.916 16.4148 245.951C16.4563 245.985 16.4872 246.031 16.5041 246.082C16.521 246.133 16.5231 246.189 16.5102 246.241C16.4973 246.293 16.47 246.341 16.4312 246.379L15.7279 247.04L15.8896 247.983C15.8979 248.035 15.8916 248.089 15.8713 248.138C15.851 248.187 15.8176 248.229 15.7747 248.261C15.7317 248.292 15.681 248.311 15.6281 248.315C15.5751 248.319 15.522 248.309 15.4746 248.285L14.6306 247.842L13.7865 248.285C13.7391 248.309 13.686 248.319 13.6331 248.315C13.5801 248.311 13.5294 248.292 13.4865 248.261C13.4436 248.229 13.4101 248.187 13.3898 248.138C13.3695 248.089 13.3632 248.035 13.3715 247.983L13.5333 247.04L12.8299 246.379C12.7913 246.342 12.7639 246.294 12.7506 246.242C12.7374 246.191 12.7389 246.136 12.755 246.085C12.771 246.034 12.801 245.988 12.8416 245.953C12.8822 245.918 12.9317 245.895 12.9846 245.887L13.9272 245.746L14.3562 244.895C14.375 244.837 14.4117 244.786 14.461 244.75C14.5103 244.715 14.5696 244.695 14.6306 244.695C14.6915 244.695 14.7509 244.715 14.8001 244.75C14.8494 244.786 14.8861 244.837 14.9049 244.895Z" fill="#F5F5F5"/>
<path d="M33.8753 30.5727L34.2974 31.4308L35.2469 31.5645C35.2999 31.5729 35.3494 31.5959 35.39 31.631C35.4306 31.666 35.4606 31.7116 35.4766 31.7628C35.4927 31.8139 35.4942 31.8685 35.481 31.9205C35.4677 31.9724 35.4403 32.0196 35.4017 32.0568L34.6983 32.7602L34.8601 33.6957C34.8713 33.7488 34.867 33.804 34.8475 33.8547C34.8281 33.9054 34.7944 33.9494 34.7505 33.9813C34.7067 34.0133 34.6545 34.0319 34.6003 34.0349C34.5461 34.0379 34.4922 34.0251 34.4451 33.9982L33.601 33.555L32.757 33.9982C32.7099 34.0251 32.6559 34.0379 32.6017 34.0349C32.5475 34.0319 32.4954 34.0133 32.4515 33.9813C32.4076 33.9494 32.374 33.9054 32.3545 33.8547C32.3351 33.804 32.3307 33.7488 32.342 33.6957L32.4967 32.7602L31.7933 32.0568C31.7546 32.0192 31.7273 31.9714 31.7144 31.9189C31.7015 31.8665 31.7036 31.8114 31.7205 31.7601C31.7373 31.7088 31.7683 31.6633 31.8097 31.6287C31.8512 31.5941 31.9016 31.5718 31.9551 31.5645L32.8976 31.4308L33.3478 30.5727C33.3704 30.5216 33.4074 30.4781 33.4542 30.4476C33.501 30.4171 33.5557 30.4009 33.6116 30.4009C33.6675 30.4009 33.7221 30.4171 33.769 30.4476C33.8158 30.4781 33.8528 30.5216 33.8753 30.5727Z" fill="#EBEBEB"/>
<path d="M32.7357 200.103C32.7371 200.289 32.6834 200.47 32.5815 200.625C32.4796 200.78 32.3339 200.901 32.1631 200.973C31.9923 201.044 31.804 201.064 31.6221 201.029C31.4401 200.993 31.2728 200.905 31.1413 200.774C31.0097 200.644 30.9199 200.477 30.8832 200.295C30.8466 200.114 30.8647 199.925 30.9353 199.754C31.0059 199.583 31.1258 199.436 31.2798 199.333C31.4338 199.23 31.6149 199.175 31.8002 199.175C32.0471 199.175 32.284 199.272 32.4592 199.446C32.6345 199.62 32.7339 199.856 32.7357 200.103Z" fill="#EBEBEB"/>
<path d="M166.056 83.0384C166.057 83.2237 166.003 83.4052 165.901 83.56C165.799 83.7148 165.654 83.8358 165.483 83.9077C165.312 83.9795 165.124 83.9991 164.942 83.9638C164.76 83.9285 164.593 83.8399 164.461 83.7094C164.33 83.5788 164.24 83.4122 164.203 83.2305C164.166 83.0488 164.185 82.8604 164.255 82.689C164.326 82.5177 164.446 82.3712 164.6 82.268C164.754 82.1649 164.935 82.1099 165.12 82.1099C165.243 82.109 165.364 82.1323 165.478 82.1785C165.591 82.2248 165.694 82.293 165.781 82.3793C165.868 82.4656 165.937 82.5683 165.984 82.6814C166.031 82.7945 166.056 82.9158 166.056 83.0384Z" fill="#EBEBEB"/>
<path d="M117.55 31.3466C117.55 31.5317 117.495 31.7125 117.393 31.8664C117.29 32.0202 117.144 32.1401 116.973 32.2109C116.802 32.2817 116.614 32.3003 116.432 32.2642C116.251 32.2281 116.084 32.139 115.953 32.0081C115.822 31.8773 115.733 31.7106 115.697 31.5291C115.661 31.3477 115.68 31.1596 115.75 30.9886C115.821 30.8177 115.941 30.6716 116.095 30.5688C116.249 30.466 116.43 30.4111 116.615 30.4111C116.862 30.413 117.099 30.5121 117.274 30.6872C117.449 30.8622 117.548 31.0991 117.55 31.3466Z" fill="#F5F5F5"/>
<path d="M119.031 259.345C121.81 258.689 123.531 255.905 122.875 253.126C122.22 250.347 119.435 248.626 116.656 249.282C113.877 249.938 112.156 252.722 112.812 255.501C113.468 258.28 116.252 260.001 119.031 259.345Z" fill="#F0F0F0"/>
<path d="M116.066 251.289C115.007 251.286 113.975 251.621 113.119 252.245C112.681 253.248 112.574 254.364 112.812 255.431C113.05 256.499 113.621 257.464 114.443 258.186C115.264 258.908 116.294 259.351 117.384 259.45C118.473 259.549 119.566 259.3 120.504 258.737C120.92 257.969 121.128 257.106 121.11 256.233C121.092 255.359 120.847 254.506 120.399 253.756C119.952 253.005 119.317 252.384 118.558 251.953C117.798 251.522 116.939 251.295 116.066 251.296V251.289Z" fill="#E6E6E6"/>
<path d="M76.0292 164.456H33.228V145.134L76.0292 94.2505H96.5118V146.231H107.126V164.456H96.5118V180.268H76.0292V164.456ZM76.0292 146.231V119.615L53.4082 146.231H76.0292Z" fill="#2336CD"/>
<path d="M114.448 137.635C114.448 121.556 117.342 110.302 123.128 103.873C128.915 97.4438 137.733 94.2316 149.583 94.2363C155.271 94.2363 159.944 94.9397 163.601 96.3465C166.924 97.5437 169.966 99.4085 172.541 101.826C174.712 103.898 176.55 106.292 177.992 108.923C179.42 111.67 180.495 114.587 181.193 117.603C182.783 124.046 183.577 130.661 183.556 137.298C183.556 152.641 180.961 163.869 175.77 170.983C170.579 178.097 161.639 181.656 148.95 181.66C141.831 181.66 136.08 180.526 131.695 178.256C127.276 175.95 123.553 172.504 120.913 168.275C118.873 165.161 117.285 160.901 116.151 155.494C114.972 149.615 114.402 143.631 114.448 137.635ZM137.759 137.692C137.759 148.477 138.708 155.832 140.607 159.757C142.507 163.682 145.266 165.654 148.886 165.672C150.035 165.685 151.175 165.47 152.24 165.039C153.305 164.608 154.274 163.97 155.09 163.161C156.844 161.487 158.133 158.842 158.959 155.227C159.784 151.612 160.197 145.985 160.197 138.346C160.197 127.12 159.245 119.572 157.341 115.704C155.437 111.835 152.581 109.903 148.774 109.908C144.891 109.908 142.077 111.88 140.333 115.823C138.589 119.767 137.731 127.056 137.759 137.692Z" fill="#2336CD"/>
<path d="M233.63 164.456H190.829V145.134L233.63 94.2505H254.113V146.231H264.762V164.456H254.113V180.268H233.63V164.456ZM233.63 146.231V119.615L211.016 146.231H233.63Z" fill="#2336CD"/>
<g opacity="0.3">
<path d="M113.534 64.56C113.534 64.8204 113.457 65.075 113.312 65.2915C113.167 65.5079 112.961 65.6765 112.72 65.7758C112.48 65.8752 112.215 65.9008 111.959 65.8495C111.704 65.7982 111.47 65.6722 111.286 65.4876C111.102 65.3029 110.978 65.0679 110.928 64.8123C110.878 64.5566 110.905 64.292 111.005 64.0517C111.106 63.8115 111.276 63.6066 111.493 63.4629C111.71 63.3192 111.965 63.2433 112.226 63.2446C112.398 63.2446 112.569 63.2787 112.728 63.3449C112.887 63.4111 113.032 63.5081 113.153 63.6303C113.275 63.7526 113.371 63.8976 113.436 64.0572C113.502 64.2167 113.535 64.3876 113.534 64.56Z" fill="#2336CD"/>
<path d="M23.4788 115.084C23.9915 115.084 24.4072 114.669 24.4072 114.156C24.4072 113.643 23.9915 113.228 23.4788 113.228C22.966 113.228 22.5503 113.643 22.5503 114.156C22.5503 114.669 22.966 115.084 23.4788 115.084Z" fill="#2336CD"/>
<path d="M176.874 250.677C177.608 250.677 178.203 250.082 178.203 249.347C178.203 248.613 177.608 248.018 176.874 248.018C176.14 248.018 175.544 248.613 175.544 249.347C175.544 250.082 176.14 250.677 176.874 250.677Z" fill="#2336CD"/>
<path d="M208.843 196.586C209.356 196.586 209.772 196.17 209.772 195.657C209.772 195.145 209.356 194.729 208.843 194.729C208.33 194.729 207.915 195.145 207.915 195.657C207.915 196.17 208.33 196.586 208.843 196.586Z" fill="#2336CD"/>
<path d="M270.509 29.3909C270.509 29.5745 270.454 29.754 270.352 29.9067C270.25 30.0594 270.105 30.1784 269.936 30.2487C269.766 30.3189 269.579 30.3373 269.399 30.3015C269.219 30.2657 269.054 30.1773 268.924 30.0474C268.794 29.9176 268.706 29.7521 268.67 29.572C268.634 29.3919 268.652 29.2052 268.723 29.0356C268.793 28.8659 268.912 28.7209 269.064 28.6189C269.217 28.5169 269.397 28.4624 269.58 28.4624C269.827 28.4624 270.063 28.5602 270.237 28.7343C270.411 28.9085 270.509 29.1446 270.509 29.3909Z" fill="#2336CD"/>
<path d="M93.6631 10.6668C93.6631 10.8504 93.6086 11.0299 93.5066 11.1826C93.4046 11.3353 93.2596 11.4543 93.0899 11.5245C92.9203 11.5948 92.7336 11.6132 92.5535 11.5774C92.3734 11.5416 92.2079 11.4531 92.0781 11.3233C91.9482 11.1934 91.8598 11.028 91.824 10.8479C91.7882 10.6678 91.8066 10.4811 91.8768 10.3114C91.9471 10.1418 92.0661 9.99678 92.2188 9.89476C92.3715 9.79273 92.551 9.73828 92.7346 9.73828C92.9803 9.74012 93.2154 9.83853 93.3891 10.0123C93.5628 10.186 93.6613 10.4211 93.6631 10.6668Z" fill="#2336CD"/>
<path d="M167.484 59.3833C167.996 59.3833 168.412 58.9676 168.412 58.4548C168.412 57.9421 167.996 57.5264 167.484 57.5264C166.971 57.5264 166.555 57.9421 166.555 58.4548C166.555 58.9676 166.971 59.3833 167.484 59.3833Z" fill="#2336CD"/>
</g>
<path d="M71.4923 59.3903C80.0037 59.3903 86.9035 52.4905 86.9035 43.9791C86.9035 35.4677 80.0037 28.5679 71.4923 28.5679C62.9809 28.5679 56.0811 35.4677 56.0811 43.9791C56.0811 52.4905 62.9809 59.3903 71.4923 59.3903Z" fill="#2336CD"/>
<path opacity="0.7" d="M71.4923 59.3903C80.0037 59.3903 86.9035 52.4905 86.9035 43.9791C86.9035 35.4677 80.0037 28.5679 71.4923 28.5679C62.9809 28.5679 56.0811 35.4677 56.0811 43.9791C56.0811 52.4905 62.9809 59.3903 71.4923 59.3903Z" fill="white"/>
<path opacity="0.2" d="M66.1819 32.3521C64.0831 32.3457 62.0052 32.7694 60.0765 33.5971C57.7061 36.2024 56.2992 39.5407 56.0898 43.0568C55.8804 46.5728 56.8812 50.0546 58.9257 52.9228C60.9702 55.7909 63.935 57.8726 67.3271 58.8215C70.7191 59.7704 74.3338 59.5293 77.5698 58.1383C79.5761 55.9273 80.8972 53.1813 81.3729 50.2339C81.8486 47.2864 81.4583 44.2643 80.2494 41.5344C79.0405 38.8045 77.065 36.4843 74.5628 34.8556C72.0606 33.2268 69.1394 32.3596 66.1538 32.3592L66.1819 32.3521Z" fill="#2336CD"/>
<path opacity="0.2" d="M64.6485 36.4248C64.6485 36.7031 64.566 36.9751 64.4114 37.2064C64.2568 37.4377 64.0371 37.6181 63.7801 37.7245C63.523 37.831 63.2402 37.8589 62.9673 37.8046C62.6944 37.7503 62.4437 37.6163 62.247 37.4196C62.0503 37.2228 61.9163 36.9722 61.862 36.6993C61.8077 36.4264 61.8356 36.1435 61.942 35.8865C62.0485 35.6294 62.2288 35.4097 62.4602 35.2551C62.6915 35.1006 62.9635 35.0181 63.2417 35.0181C63.6148 35.0181 63.9727 35.1663 64.2365 35.4301C64.5003 35.6939 64.6485 36.0517 64.6485 36.4248Z" fill="#2336CD"/>
<path opacity="0.2" d="M81.2203 35.0181C81.2203 35.2963 81.1378 35.5683 80.9832 35.7997C80.8286 36.031 80.6089 36.2113 80.3519 36.3178C80.0948 36.4243 79.8119 36.4521 79.5391 36.3978C79.2662 36.3436 79.0155 36.2096 78.8188 36.0128C78.622 35.8161 78.4881 35.5654 78.4338 35.2925C78.3795 35.0197 78.4073 34.7368 78.5138 34.4797C78.6203 34.2227 78.8006 34.003 79.0319 33.8484C79.2633 33.6938 79.5353 33.6113 79.8135 33.6113C80.1866 33.6113 80.5444 33.7595 80.8083 34.0234C81.0721 34.2872 81.2203 34.645 81.2203 35.0181Z" fill="#2336CD"/>
<path opacity="0.2" d="M78.4062 45.0625C78.4062 45.5188 78.2709 45.9648 78.0174 46.3442C77.7639 46.7236 77.4036 47.0194 76.982 47.194C76.5604 47.3686 76.0965 47.4143 75.649 47.3253C75.2015 47.2362 74.7904 47.0165 74.4677 46.6939C74.1451 46.3712 73.9253 45.9601 73.8363 45.5126C73.7473 45.065 73.793 44.6012 73.9676 44.1796C74.1422 43.758 74.4379 43.3977 74.8173 43.1442C75.1967 42.8907 75.6428 42.7554 76.0991 42.7554C76.711 42.7554 77.2978 42.9984 77.7305 43.4311C78.1631 43.8638 78.4062 44.4506 78.4062 45.0625Z" fill="#2336CD"/>
<path opacity="0.2" d="M71.0772 51.6389C71.0772 52.2483 70.8965 52.8439 70.558 53.3506C70.2195 53.8572 69.7383 54.2521 69.1754 54.4853C68.6124 54.7184 67.9929 54.7795 67.3953 54.6606C66.7977 54.5417 66.2487 54.2483 65.8179 53.8174C65.387 53.3866 65.0936 52.8376 64.9747 52.24C64.8559 51.6424 64.9169 51.0229 65.15 50.46C65.3832 49.897 65.7781 49.4158 66.2847 49.0773C66.7914 48.7388 67.387 48.5581 67.9964 48.5581C68.8135 48.5581 69.5971 48.8827 70.1749 49.4605C70.7526 50.0382 71.0772 50.8219 71.0772 51.6389Z" fill="#2336CD"/>
<path d="M254.141 229.875C255.857 222.604 251.354 215.319 244.083 213.603C236.813 211.887 229.528 216.39 227.812 223.661C226.096 230.931 230.599 238.216 237.869 239.932C245.14 241.648 252.425 237.145 254.141 229.875Z" fill="#2336CD"/>
<path opacity="0.3" d="M254.141 229.875C255.857 222.604 251.354 215.319 244.083 213.603C236.813 211.887 229.528 216.39 227.812 223.661C226.096 230.931 230.599 238.216 237.869 239.932C245.14 241.648 252.425 237.145 254.141 229.875Z" fill="white"/>
<path opacity="0.4" d="M249.52 216.295C246.521 215.39 243.302 215.554 240.411 216.759C237.52 217.965 235.137 220.136 233.67 222.904C232.202 225.671 231.741 228.861 232.365 231.931C232.989 235 234.66 237.757 237.091 239.732C238.352 240.115 239.663 240.309 240.981 240.309C243.773 240.308 246.497 239.443 248.778 237.833C251.059 236.222 252.786 233.945 253.722 231.314C254.657 228.683 254.756 225.827 254.003 223.138C253.251 220.449 251.685 218.058 249.52 216.295Z" fill="#2336CD"/>
<path d="M228.067 230.827C213.626 237.622 224.395 242.862 244.744 235.547C263.588 228.773 270.769 220.234 253.888 222.886C254.795 226.438 231.197 235.631 228.067 230.827Z" fill="#2336CD"/>
<path opacity="0.2" d="M249.358 94.2505C230.444 107.031 205.959 123.912 199.199 164.456H197.757C204.334 124.363 227.926 107.08 246.847 94.2505H249.358Z" fill="black"/>
<path d="M151.517 221.17C139.559 221.17 127.735 215.775 121.974 206.968C118.422 201.524 114.293 190.122 126.589 174.908L127.679 175.794C118.985 186.556 117.381 197.353 123.156 206.202C130.19 216.964 146.783 222.38 160.949 218.525C175.46 214.579 184.266 201.96 185.118 183.904C188.023 122.14 220.836 103.113 244.793 89.2214C259.684 80.5908 270.438 74.3588 268.075 61.1984C267.744 59.3767 267.02 58.1176 265.845 57.3439C262.786 55.3252 256.807 56.7249 249.885 58.3357C236.303 61.5009 217.705 65.8338 206.627 46.99L207.844 46.2866C218.395 64.2441 235.677 60.2137 249.569 56.9781C256.807 55.297 263.053 53.841 266.619 56.1833C268.131 57.1751 269.06 58.7436 269.433 60.9663C271.972 75.0903 260.289 81.871 245.482 90.4523C221.799 104.182 189.373 122.984 186.503 184.003C185.617 202.713 176.431 215.803 161.294 219.918C158.105 220.767 154.817 221.188 151.517 221.17Z" fill="#2336CD"/>
<path opacity="0.2" d="M151.517 221.17C139.559 221.17 127.735 215.775 121.974 206.968C118.422 201.524 114.293 190.122 126.589 174.908L127.679 175.794C118.985 186.556 117.381 197.353 123.156 206.202C130.19 216.964 146.783 222.38 160.949 218.525C175.46 214.579 184.266 201.96 185.118 183.904C188.023 122.14 220.836 103.113 244.793 89.2214C259.684 80.5908 270.438 74.3588 268.075 61.1984C267.744 59.3767 267.02 58.1176 265.845 57.3439C262.786 55.3252 256.807 56.7249 249.885 58.3357C236.303 61.5009 217.705 65.8338 206.627 46.99L207.844 46.2866C218.395 64.2441 235.677 60.2137 249.569 56.9781C256.807 55.297 263.053 53.841 266.619 56.1833C268.131 57.1751 269.06 58.7436 269.433 60.9663C271.972 75.0903 260.289 81.871 245.482 90.4523C221.799 104.182 189.373 122.984 186.503 184.003C185.617 202.713 176.431 215.803 161.294 219.918C158.105 220.767 154.817 221.188 151.517 221.17Z" fill="white"/>
<path d="M192.145 30.3618C195.386 30.3805 198.605 30.8855 201.697 31.86C201.697 31.86 209.434 45.0626 210.348 48.0872C210.025 51.0695 204.995 55.9581 204.995 55.9581L192.145 30.3618Z" fill="#2336CD"/>
<path opacity="0.3" d="M192.145 30.3618C195.386 30.3805 198.605 30.8855 201.697 31.86C201.697 31.86 209.434 45.0626 210.348 48.0872C210.025 51.0695 204.995 55.9581 204.995 55.9581L192.145 30.3618Z" fill="white"/>
<path d="M215.061 94.4615C212.081 90.8182 209.364 86.968 206.93 82.94C206.339 81.9224 205.778 80.8861 205.249 79.831C204.946 79.2331 204.658 78.6353 204.376 78.0303C204.007 77.4417 203.721 76.805 203.525 76.1382C202.681 67.2263 205.734 60.6637 202.822 53.5103L191.23 58.0401C191.23 58.0401 192.215 70.7855 194.466 78.4383C195.872 83.1721 199.024 87.2658 202.069 91.0571C203.019 92.2388 203.933 93.4556 204.883 94.6444C205.832 95.8331 206.789 96.7967 207.696 97.9151C209.068 99.6103 209.518 101.235 208.484 103.233L208.308 103.549C208.013 104.07 209.391 104.661 210.264 103.549C211.67 101.735 211.473 101.847 212.697 100.3C213.443 99.3641 214.294 98.3442 215.033 97.486C215.389 97.0641 215.587 96.531 215.592 95.9788C215.597 95.4266 215.409 94.89 215.061 94.4615Z" fill="#2336CD"/>
<path opacity="0.7" d="M215.061 94.4615C212.081 90.8182 209.364 86.968 206.93 82.94C206.339 81.9224 205.778 80.8861 205.249 79.831C204.946 79.2331 204.658 78.6353 204.376 78.0303C204.007 77.4417 203.721 76.805 203.525 76.1382C202.681 67.2263 205.734 60.6637 202.822 53.5103L191.23 58.0401C191.23 58.0401 192.215 70.7855 194.466 78.4383C195.872 83.1721 199.024 87.2658 202.069 91.0571C203.019 92.2388 203.933 93.4556 204.883 94.6444C205.832 95.8331 206.789 96.7967 207.696 97.9151C209.068 99.6103 209.518 101.235 208.484 103.233L208.308 103.549C208.013 104.07 209.391 104.661 210.264 103.549C211.67 101.735 211.473 101.847 212.697 100.3C213.443 99.3641 214.294 98.3442 215.033 97.486C215.389 97.0641 215.587 96.531 215.592 95.9788C215.597 95.4266 215.409 94.89 215.061 94.4615Z" fill="white"/>
<path opacity="0.3" d="M212.226 90.7969C210.387 92.7687 208.345 94.5416 206.135 96.0864C206.437 96.424 206.733 96.7897 207.035 97.1133C209.248 95.6183 211.258 93.8427 213.014 91.8309L212.226 90.7969Z" fill="#2336CD"/>
<path opacity="0.3" d="M215.061 94.4613L214.976 94.3628C214.435 94.9837 214.12 95.7697 214.083 96.5925C214.038 97.157 214.129 97.7241 214.35 98.2455L215.019 97.4507C215.368 97.033 215.563 96.5079 215.57 95.9635C215.578 95.4191 215.398 94.8886 215.061 94.4613Z" fill="#2336CD"/>
<path d="M189.387 38.8021C188.13 40.6837 186.623 42.3852 184.906 43.8595C183.954 44.6799 182.911 45.3879 181.797 45.9696C181.212 46.2695 180.606 46.5257 179.983 46.7363L179.504 46.8911L179.35 46.9333L179.019 47.0247C178.815 47.073 178.609 47.1059 178.4 47.1232C177.807 47.1686 177.21 47.1139 176.635 46.9614C175.909 46.7555 175.214 46.4551 174.567 46.0681C174.046 45.7637 173.541 45.4326 173.054 45.0763C172.175 44.4222 171.334 43.7176 170.536 42.9662C168.998 41.5083 167.586 39.9224 166.316 38.2253C166.071 37.8947 165.95 37.4891 165.972 37.0785C165.995 36.6679 166.16 36.2781 166.439 35.9763C166.719 35.6745 167.095 35.4797 167.502 35.4254C167.91 35.3711 168.324 35.4608 168.672 35.6791H168.728C170.388 36.7341 172.062 37.8455 173.694 38.8373C174.524 39.3226 175.326 39.815 176.121 40.1948C176.484 40.3848 176.857 40.5539 177.239 40.7012C177.477 40.8063 177.732 40.8683 177.992 40.8841C178.034 40.8841 177.992 40.8349 177.732 40.8419C177.65 40.837 177.568 40.837 177.486 40.8419L177.331 40.8771L177.563 40.7575C177.876 40.5894 178.178 40.4038 178.47 40.2018C179.1 39.7581 179.688 39.2591 180.229 38.7107C181.458 37.4229 182.609 36.0629 183.675 34.6381C184.26 33.9841 185.068 33.5722 185.94 33.483C186.813 33.3939 187.687 33.6341 188.392 34.1564C189.097 34.6787 189.581 35.4455 189.749 36.3063C189.917 37.1671 189.758 38.0597 189.303 38.8091L189.387 38.8021Z" fill="#2336CD"/>
<path opacity="0.7" d="M189.387 38.8021C188.13 40.6837 186.623 42.3852 184.906 43.8595C183.954 44.6799 182.911 45.3879 181.797 45.9696C181.212 46.2695 180.606 46.5257 179.983 46.7363L179.504 46.8911L179.35 46.9333L179.019 47.0247C178.815 47.073 178.609 47.1059 178.4 47.1232C177.807 47.1686 177.21 47.1139 176.635 46.9614C175.909 46.7555 175.214 46.4551 174.567 46.0681C174.046 45.7637 173.541 45.4326 173.054 45.0763C172.175 44.4222 171.334 43.7176 170.536 42.9662C168.998 41.5083 167.586 39.9224 166.316 38.2253C166.071 37.8947 165.95 37.4891 165.972 37.0785C165.995 36.6679 166.16 36.2781 166.439 35.9763C166.719 35.6745 167.095 35.4797 167.502 35.4254C167.91 35.3711 168.324 35.4608 168.672 35.6791H168.728C170.388 36.7341 172.062 37.8455 173.694 38.8373C174.524 39.3226 175.326 39.815 176.121 40.1948C176.484 40.3848 176.857 40.5539 177.239 40.7012C177.477 40.8063 177.732 40.8683 177.992 40.8841C178.034 40.8841 177.992 40.8349 177.732 40.8419C177.65 40.837 177.568 40.837 177.486 40.8419L177.331 40.8771L177.563 40.7575C177.876 40.5894 178.178 40.4038 178.47 40.2018C179.1 39.7581 179.688 39.2591 180.229 38.7107C181.458 37.4229 182.609 36.0629 183.675 34.6381C184.26 33.9841 185.068 33.5722 185.94 33.483C186.813 33.3939 187.687 33.6341 188.392 34.1564C189.097 34.6787 189.581 35.4455 189.749 36.3063C189.917 37.1671 189.758 38.0597 189.303 38.8091L189.387 38.8021Z" fill="white"/>
<path d="M163.678 34.174L164.501 35.5808C164.501 35.5808 165.127 37.4237 166.386 37.7613L169.805 36.657L169.629 36.3686C169.193 35.7074 169.242 34.4202 169.39 33.351C169.537 32.2819 168.989 32.2467 168.581 32.514C168.292 32.8466 168.089 33.2451 167.99 33.6746C167.822 33.4423 167.636 33.2236 167.434 33.0205L166.393 31.9794C166.175 31.766 165.884 31.643 165.578 31.6352C165.273 31.6273 164.976 31.7352 164.747 31.9372L163.903 32.6899C163.703 32.8751 163.572 33.1228 163.531 33.3925C163.49 33.6622 163.542 33.9378 163.678 34.174Z" fill="#2336CD"/>
<path opacity="0.7" d="M163.678 34.174L164.501 35.5808C164.501 35.5808 165.127 37.4237 166.386 37.7613L169.805 36.657L169.629 36.3686C169.193 35.7074 169.242 34.4202 169.39 33.351C169.537 32.2819 168.989 32.2467 168.581 32.514C168.292 32.8466 168.089 33.2451 167.99 33.6746C167.822 33.4423 167.636 33.2236 167.434 33.0205L166.393 31.9794C166.175 31.766 165.884 31.643 165.578 31.6352C165.273 31.6273 164.976 31.7352 164.747 31.9372L163.903 32.6899C163.703 32.8751 163.572 33.1228 163.531 33.3925C163.49 33.6622 163.542 33.9378 163.678 34.174Z" fill="white"/>
<path d="M195.598 29.1094C191.806 30.1144 188.174 31.6463 184.808 33.6603C184.283 33.989 183.871 34.4703 183.627 35.0398C183.383 35.6093 183.319 36.2398 183.443 36.8466C184.801 43.4866 187.889 52.3774 191.223 58.0397L206.775 51.6037C206.88 48.8605 203.103 39.9838 199.255 31.4024C198.566 29.862 197.237 28.7155 195.598 29.1094Z" fill="#2336CD"/>
<path opacity="0.8" d="M195.598 29.1094C191.806 30.1144 188.174 31.6463 184.808 33.6603C184.283 33.989 183.871 34.4703 183.627 35.0398C183.383 35.6093 183.319 36.2398 183.443 36.8466C184.801 43.4866 187.889 52.3774 191.223 58.0397L206.775 51.6037C206.88 48.8605 203.103 39.9838 199.255 31.4024C198.566 29.862 197.237 28.7155 195.598 29.1094Z" fill="white"/>
<path opacity="0.3" d="M201.668 36.8401L198.58 35.8062C199.283 37.6139 201.766 39.8999 203.504 41.2433C202.941 39.8366 202.315 38.3595 201.668 36.8401Z" fill="#2336CD"/>
<path d="M194.578 22.1462C193.291 19.6984 190.513 18.4675 187.179 18.7418C184.365 18.981 181.875 21.8508 182.17 23.3982C182.466 24.9457 184.829 25.6069 185.279 26.1415L183.331 27.5482C183.1 27.7148 182.905 27.9264 182.759 28.1702C182.612 28.414 182.516 28.685 182.476 28.967C182.437 29.2489 182.455 29.5358 182.529 29.8106C182.603 30.0854 182.733 30.3422 182.909 30.5658C183.732 31.6068 184.815 32.6759 185.441 33.4637C190.829 33.323 194.817 31.2691 196.259 29.2926C195.718 26.7886 195.83 24.5799 194.578 22.1462Z" fill="#2336CD"/>
<path opacity="0.8" d="M194.578 22.1462C193.291 19.6984 190.513 18.4675 187.179 18.7418C184.365 18.981 181.875 21.8508 182.17 23.3982C182.466 24.9457 184.829 25.6069 185.279 26.1415L183.331 27.5482C183.1 27.7148 182.905 27.9264 182.759 28.1702C182.612 28.414 182.516 28.685 182.476 28.967C182.437 29.2489 182.455 29.5358 182.529 29.8106C182.603 30.0854 182.733 30.3422 182.909 30.5658C183.732 31.6068 184.815 32.6759 185.441 33.4637C190.829 33.323 194.817 31.2691 196.259 29.2926C195.718 26.7886 195.83 24.5799 194.578 22.1462Z" fill="white"/>
<path d="M191.933 23.6656C192.316 24.6465 192.399 25.7189 192.172 26.747C191.945 27.7752 191.419 28.713 190.659 29.442C189.899 30.1709 188.941 30.6583 187.904 30.8425C186.867 31.0266 185.799 30.8993 184.835 30.4766C183.871 30.054 183.053 29.3549 182.486 28.4677C181.919 27.5806 181.628 26.5453 181.649 25.4926C181.67 24.4399 182.003 23.4172 182.605 22.5536C183.208 21.6901 184.053 21.0245 185.033 20.641C186.349 20.1283 187.815 20.1588 189.109 20.7259C190.403 21.2929 191.419 22.3502 191.933 23.6656Z" fill="#263238"/>
<path d="M237.604 87.0547C237.527 84.7406 237.421 84.9446 237.358 82.9962C237.316 81.8004 237.309 80.471 237.302 79.3245C237.299 78.78 237.109 78.2531 236.763 77.8327C236.417 77.4123 235.937 77.1243 235.403 77.0174C234.474 76.8275 233.539 76.6516 232.589 76.4547C231.372 76.1944 230.169 75.9131 228.981 75.5684C228.052 75.3011 227.138 75.0057 226.23 74.6751C225.323 74.3445 224.303 73.9717 223.361 73.5356C222.249 73.0644 221.152 72.5579 220.069 72.0304C218.852 71.4536 217.649 70.8487 216.446 70.2367C211.818 62.5769 211.72 57.5265 206.754 51.604L196.09 56.4292C196.09 56.4292 203.926 70.3282 209.258 76.2226C212.332 79.6129 217.15 81.1463 221.447 82.2576C224.549 83.0525 227.694 83.6644 230.838 84.2482C232.062 84.4733 233.391 84.5577 234.446 85.2892C235.227 85.8878 235.762 86.7507 235.951 87.7159C235.998 87.9129 236.04 88.1098 236.078 88.3068C236.212 88.8976 237.654 88.4475 237.604 87.0547Z" fill="#2336CD"/>
<path opacity="0.8" d="M237.604 87.0547C237.527 84.7406 237.421 84.9446 237.358 82.9962C237.316 81.8004 237.309 80.471 237.302 79.3245C237.299 78.78 237.109 78.2531 236.763 77.8327C236.417 77.4123 235.937 77.1243 235.403 77.0174C234.474 76.8275 233.539 76.6516 232.589 76.4547C231.372 76.1944 230.169 75.9131 228.981 75.5684C228.052 75.3011 227.138 75.0057 226.23 74.6751C225.323 74.3445 224.303 73.9717 223.361 73.5356C222.249 73.0644 221.152 72.5579 220.069 72.0304C218.852 71.4536 217.649 70.8487 216.446 70.2367C211.818 62.5769 211.72 57.5265 206.754 51.604L196.09 56.4292C196.09 56.4292 203.926 70.3282 209.258 76.2226C212.332 79.6129 217.15 81.1463 221.447 82.2576C224.549 83.0525 227.694 83.6644 230.838 84.2482C232.062 84.4733 233.391 84.5577 234.446 85.2892C235.227 85.8878 235.762 86.7507 235.951 87.7159C235.998 87.9129 236.04 88.1098 236.078 88.3068C236.212 88.8976 237.654 88.4475 237.604 87.0547Z" fill="white"/>
<path opacity="0.3" d="M232.195 76.3636C231.773 76.2721 231.351 76.1807 230.922 76.0752C230.957 78.5089 229.818 82.7011 229.403 83.9742L230.739 84.2275C231.615 81.6937 232.106 79.0429 232.195 76.3636Z" fill="#2336CD"/>
<path opacity="0.3" d="M237.33 79.3245C237.328 78.7811 237.139 78.2549 236.794 77.8347C236.449 77.4144 235.97 77.1258 235.438 77.0174L234.734 76.8838C234.847 77.6834 235.257 78.4114 235.881 78.9236C236.282 79.2948 236.764 79.5691 237.288 79.7255C237.33 79.5989 237.33 79.4582 237.33 79.3245Z" fill="#2336CD"/>
<path d="M190.942 23.7078C191.223 24.7769 190.027 25.8953 189.078 24.9739C188.191 24.0236 187.221 23.155 186.18 22.3784C185.202 21.7664 186.503 20.6973 188.044 21.1123C188.701 21.2774 189.308 21.6 189.813 22.0522C190.318 22.5043 190.705 23.0725 190.942 23.7078Z" fill="white"/>
<path d="M191.019 57.6953C190.526 57.8781 191.427 58.7222 191.427 58.7222C191.427 58.7222 201.274 55.353 207.253 51.8853C207.267 51.6753 207.232 51.465 207.148 51.2717C207.065 51.0784 206.937 50.9077 206.775 50.7739C201.658 53.3769 196.397 55.6877 191.019 57.6953Z" fill="#2336CD"/>
<path opacity="0.5" d="M191.019 57.6953C190.526 57.8781 191.427 58.7222 191.427 58.7222C191.427 58.7222 201.274 55.353 207.253 51.8853C207.267 51.6753 207.232 51.465 207.148 51.2717C207.065 51.0784 206.937 50.9077 206.775 50.7739C201.658 53.3769 196.397 55.6877 191.019 57.6953Z" fill="white"/>
<path d="M198.264 28.6455C200.205 29.6302 202.027 30.6642 203.891 31.8107C204.799 32.3875 205.699 32.9713 206.592 33.6043C207.485 34.2374 208.372 34.8845 209.265 35.616L209.596 35.8904L210.011 36.2702C210.258 36.4914 210.493 36.7263 210.714 36.9736C210.939 37.2198 211.129 37.4589 211.312 37.677C211.495 37.895 211.692 38.1553 211.854 38.3803C212.509 39.2846 213.115 40.2238 213.668 41.1939C214.758 43.075 215.699 45.0388 216.482 47.0672C216.626 47.4504 216.634 47.8719 216.503 48.2601C216.372 48.6482 216.111 48.979 215.763 49.1962C215.416 49.4133 215.004 49.5035 214.598 49.4514C214.192 49.3992 213.816 49.2079 213.535 48.9101L213.499 48.8679C212.093 47.3696 210.735 45.7941 209.371 44.324C208.006 42.8539 206.62 41.3627 205.474 40.7086C203.877 39.7168 202.098 38.725 200.332 37.7543L195.014 34.8001C194.19 34.3636 193.573 33.6174 193.298 32.7257C193.024 31.8339 193.115 30.8698 193.551 30.0452C193.988 29.2207 194.734 28.6033 195.626 28.3289C196.518 28.0545 197.482 28.1456 198.306 28.5822L198.264 28.6455Z" fill="#2336CD"/>
<path opacity="0.8" d="M198.264 28.6455C200.205 29.6302 202.027 30.6642 203.891 31.8107C204.799 32.3875 205.699 32.9713 206.592 33.6043C207.485 34.2374 208.372 34.8845 209.265 35.616L209.596 35.8904L210.011 36.2702C210.258 36.4914 210.493 36.7263 210.714 36.9736C210.939 37.2198 211.129 37.4589 211.312 37.677C211.495 37.895 211.692 38.1553 211.854 38.3803C212.509 39.2846 213.115 40.2238 213.668 41.1939C214.758 43.075 215.699 45.0388 216.482 47.0672C216.626 47.4504 216.634 47.8719 216.503 48.2601C216.372 48.6482 216.111 48.979 215.763 49.1962C215.416 49.4133 215.004 49.5035 214.598 49.4514C214.192 49.3992 213.816 49.2079 213.535 48.9101L213.499 48.8679C212.093 47.3696 210.735 45.7941 209.371 44.324C208.006 42.8539 206.62 41.3627 205.474 40.7086C203.877 39.7168 202.098 38.725 200.332 37.7543L195.014 34.8001C194.19 34.3636 193.573 33.6174 193.298 32.7257C193.024 31.8339 193.115 30.8698 193.551 30.0452C193.988 29.2207 194.734 28.6033 195.626 28.3289C196.518 28.0545 197.482 28.1456 198.306 28.5822L198.264 28.6455Z" fill="white"/>
<path d="M218.149 50.5774L217.551 49.0791C217.551 49.0791 217.22 47.1659 216.031 46.6313L212.514 47.187L212.634 47.4965C212.958 48.1999 212.711 49.4871 212.395 50.5141C212.078 51.541 212.613 51.6746 213.063 51.4707C213.316 51.3581 213.562 50.9009 213.83 50.4156C213.961 50.6601 214.109 50.8951 214.273 51.119L215.138 52.3077C215.319 52.554 215.586 52.7228 215.886 52.7803C216.186 52.8377 216.497 52.7794 216.756 52.6172L217.712 52.0052C217.936 51.852 218.101 51.6272 218.181 51.3677C218.26 51.1082 218.249 50.8295 218.149 50.5774Z" fill="#2336CD"/>
<path opacity="0.8" d="M218.149 50.5774L217.551 49.0791C217.551 49.0791 217.22 47.1659 216.031 46.6313L212.514 47.187L212.634 47.4965C212.958 48.1999 212.711 49.4871 212.395 50.5141C212.078 51.541 212.613 51.6746 213.063 51.4707C213.316 51.3581 213.562 50.9009 213.83 50.4156C213.961 50.6601 214.109 50.8951 214.273 51.119L215.138 52.3077C215.319 52.554 215.586 52.7228 215.886 52.7803C216.186 52.8377 216.497 52.7794 216.756 52.6172L217.712 52.0052C217.936 51.852 218.101 51.6272 218.181 51.3677C218.26 51.1082 218.249 50.8295 218.149 50.5774Z" fill="white"/>
<path opacity="0.3" d="M195.295 36.7344L194.437 36.8047L189.169 49.522C189.457 49.5427 189.746 49.519 190.027 49.4516C190.027 49.4516 196.892 46.8913 198.967 45.9347C197.574 43.0578 195.295 36.7344 195.295 36.7344Z" fill="#2336CD"/>
<path d="M185.68 40.0684C186.32 43.3928 187.509 46.5875 189.197 49.5219C191.772 48.6357 196.062 46.9616 198.144 46.005C196.745 43.005 195.503 39.9341 194.423 36.8047C192.222 36.9524 187.389 38.8023 185.68 40.0684Z" fill="white"/>
<path opacity="0.3" d="M190.906 42.8184C190.804 43.1624 190.601 43.4681 190.324 43.697C190.048 43.9258 189.71 44.0674 189.352 44.104C188.995 44.1405 188.635 44.0702 188.318 43.9021C188.001 43.734 187.741 43.4756 187.57 43.1596C187.4 42.8435 187.327 42.4841 187.361 42.1267C187.395 41.7693 187.534 41.43 187.761 41.1518C187.988 40.8735 188.293 40.6689 188.636 40.5636C188.979 40.4584 189.346 40.4573 189.69 40.5605C190.15 40.6988 190.537 41.0143 190.765 41.4377C190.993 41.861 191.044 42.3576 190.906 42.8184Z" fill="#2336CD"/>
<path opacity="0.6" d="M192.25 40.3989C192.223 40.5163 192.16 40.6227 192.071 40.704C191.982 40.7854 191.871 40.838 191.751 40.8549C191.632 40.8718 191.51 40.8522 191.402 40.7987C191.294 40.7452 191.205 40.6602 191.146 40.555C191.087 40.4498 191.061 40.3293 191.072 40.2092C191.083 40.0891 191.13 39.9751 191.207 39.8822C191.284 39.7892 191.387 39.7216 191.502 39.6883C191.618 39.655 191.742 39.6575 191.856 39.6955C191.999 39.741 192.118 39.839 192.192 39.9696C192.265 40.1001 192.286 40.2535 192.25 40.3989Z" fill="#2336CD"/>
<path opacity="0.6" d="M193.825 39.7869C193.809 39.8685 193.776 39.9458 193.728 40.0137C193.679 40.0817 193.618 40.1388 193.546 40.1815C193.475 40.2243 193.395 40.2516 193.313 40.2617C193.23 40.2719 193.146 40.2647 193.066 40.2406C192.987 40.2165 192.913 40.176 192.85 40.1218C192.787 40.0675 192.736 40.0007 192.7 39.9255C192.664 39.8504 192.644 39.7686 192.642 39.6853C192.639 39.6021 192.655 39.5193 192.686 39.4423C192.709 39.3678 192.745 39.2986 192.795 39.2385C192.844 39.1784 192.905 39.1286 192.973 39.092C193.042 39.0554 193.117 39.0327 193.195 39.0252C193.272 39.0177 193.35 39.0256 193.425 39.0484C193.575 39.094 193.702 39.1971 193.777 39.3353C193.852 39.4736 193.869 39.6358 193.825 39.7869Z" fill="#2336CD"/>
<path opacity="0.5" d="M196.034 45.2665L189.528 47.8339L189.141 46.5537L195.64 43.9863L196.034 45.2665Z" fill="#2336CD"/>
<path opacity="0.2" d="M160.14 143.023C160.125 147.119 159.729 151.205 158.958 155.227C158.128 158.843 156.839 161.487 155.09 163.161C154.275 163.97 153.308 164.609 152.244 165.04C151.18 165.471 150.041 165.686 148.893 165.672C145.278 165.672 142.518 163.701 140.614 159.757C140.28 159.049 139.995 158.318 139.763 157.569C135.742 161.023 131.998 164.786 128.565 168.824L124.83 173.227C126.84 175.264 129.159 176.971 131.702 178.284C136.082 180.549 141.831 181.684 148.949 181.689C150.201 181.689 151.411 181.653 152.586 181.583C156.892 175.211 160.456 168.367 163.207 161.185L173.652 133.95L160.14 143.023Z" fill="black"/>
<path d="M65.9775 180.183L78.2868 192.493L112.753 160.017C100.873 155.48 77.7733 168.359 65.9775 180.183Z" fill="#263238"/>
<path d="M108.905 223.09C104.974 219.151 96.5962 210.78 96.5962 210.78L129.072 176.314C133.58 188.167 120.701 211.287 108.905 223.09Z" fill="#263238"/>
<path d="M156.018 145.506L169.446 119.614L143.554 133.056C135.238 137.369 127.559 142.814 120.736 149.234L76.5986 190.783L98.2841 212.468L139.833 168.331C146.257 161.507 151.703 153.825 156.018 145.506Z" fill="#2336CD"/>
<path opacity="0.6" d="M156.018 145.506L169.446 119.614L143.554 133.056C135.238 137.369 127.559 142.814 120.736 149.234L76.5986 190.783L98.2841 212.468L139.833 168.331C146.257 161.507 151.703 153.825 156.018 145.506Z" fill="white"/>
<path d="M128.446 169.689C133.457 169.689 137.519 165.626 137.519 160.615C137.519 155.604 133.457 151.542 128.446 151.542C123.434 151.542 119.372 155.604 119.372 160.615C119.372 165.626 123.434 169.689 128.446 169.689Z" fill="white"/>
<path d="M128.445 166.446C131.666 166.446 134.276 163.835 134.276 160.615C134.276 157.394 131.666 154.784 128.445 154.784C125.225 154.784 122.614 157.394 122.614 160.615C122.614 163.835 125.225 166.446 128.445 166.446Z" fill="#2336CD"/>
<path opacity="0.3" d="M105.621 204.675L84.3853 183.44L101.773 167.079L121.981 187.294L105.621 204.675Z" fill="#2336CD"/>
<path d="M70.7816 199.611C54.885 200.898 49.6167 211.076 47.816 224.602C46.9016 231.502 46.4936 238.487 40.7047 242.525C40.3565 242.761 40.0943 243.104 39.9574 243.503C39.8205 243.901 39.8163 244.333 39.9454 244.733C40.0745 245.134 40.33 245.482 40.6736 245.726C41.0171 245.969 41.4303 246.095 41.8513 246.084C63.192 245.415 73.145 234.97 74.397 230.609C74.0684 232.889 73.4808 235.124 72.6456 237.27C72.492 237.649 72.462 238.067 72.5597 238.463C72.6574 238.86 72.8778 239.216 73.1896 239.48C73.5014 239.745 73.8886 239.904 74.2961 239.935C74.7036 239.966 75.1106 239.868 75.4591 239.655C81.4449 235.906 88.9571 228.998 89.4565 217.793C85.0533 211.554 70.7816 199.611 70.7816 199.611Z" fill="#2336CD"/>
<path opacity="0.2" d="M70.7816 199.611C54.885 200.898 49.6167 211.076 47.816 224.602C46.9016 231.502 46.4936 238.487 40.7047 242.525C40.3565 242.761 40.0943 243.104 39.9574 243.503C39.8205 243.901 39.8163 244.333 39.9454 244.733C40.0745 245.134 40.33 245.482 40.6736 245.726C41.0171 245.969 41.4303 246.095 41.8513 246.084C63.192 245.415 73.145 234.97 74.397 230.609C74.0684 232.889 73.4808 235.124 72.6456 237.27C72.492 237.649 72.462 238.067 72.5597 238.463C72.6574 238.86 72.8778 239.216 73.1896 239.48C73.5014 239.745 73.8886 239.904 74.2961 239.935C74.7036 239.966 75.1106 239.868 75.4591 239.655C81.4449 235.906 88.9571 228.998 89.4565 217.793C85.0533 211.554 70.7816 199.611 70.7816 199.611Z" fill="white"/>
<path d="M91.9255 222.597L66.4629 197.135L80.0242 194.202L94.8586 209.036L91.9255 222.597Z" fill="#2336CD"/>
</svg>
