<svg width="41" height="40" viewBox="0 0 41 40" fill="none" xmlns="http://www.w3.org/2000/svg">
<path d="M11.339 25.1227C6.08701 19.8707 6.08701 11.252 11.339 6M15.2444 9.77068C13.9668 11.0944 13.1672 12.8064 12.972 14.6358C12.7769 16.4651 13.1974 18.3073 14.167 19.8707" stroke="#1738CF" stroke-width="3" stroke-linecap="round" stroke-linejoin="round"/>
<path d="M20.9009 18.2546C22.3884 18.2546 23.5942 17.0488 23.5942 15.5613C23.5942 14.0738 22.3884 12.8679 20.9009 12.8679C19.4134 12.8679 18.2076 14.0738 18.2076 15.5613C18.2076 17.0488 19.4134 18.2546 20.9009 18.2546Z" stroke="#1738CF" stroke-width="3" stroke-linecap="round" stroke-linejoin="round"/>
<path d="M26.5569 9.90535C29.2503 12.5987 29.6004 16.7868 27.6343 19.965M30.4623 6C31.7107 7.24585 32.7011 8.72569 33.3769 10.3548C34.0527 11.9839 34.4005 13.7303 34.4005 15.494C34.4005 17.2577 34.0527 19.0041 33.3769 20.6333C32.7011 22.2624 31.7107 23.7422 30.4623 24.9881M17.5342 27.6814H24.2676M15.5142 33.0681L20.9009 18.2547L26.2876 33.0681" stroke="#1738CF" stroke-width="3" stroke-linecap="round" stroke-linejoin="round"/>
</svg>
