<svg width="41" height="40" viewBox="0 0 41 40" fill="none" xmlns="http://www.w3.org/2000/svg">
<path d="M23.3639 13.0898C23.9059 13.0898 24.4268 13.3074 24.8117 13.6963C25.1968 14.0854 25.414 14.6143 25.414 15.1668V32.9194C25.414 33.4719 25.1968 34.0008 24.8117 34.3899C24.4268 34.7788 23.9059 34.9964 23.3639 34.9964H14.8634C14.3214 34.9964 13.8005 34.7788 13.4156 34.3899C13.0305 34.0008 12.8133 33.4719 12.8133 32.9194V15.1668C12.8133 14.6143 13.0305 14.0854 13.4156 13.6963C13.8005 13.3074 14.3214 13.0898 14.8634 13.0898H23.3639ZM20.5304 30.4151H17.6969C17.3372 30.4151 16.9932 30.5595 16.7405 30.815C16.4879 31.0702 16.3469 31.4153 16.3469 31.7741C16.3469 32.1328 16.4879 32.4779 16.7405 32.7332C16.9932 32.9886 17.3372 33.1331 17.6969 33.1331H20.5304C20.8902 33.1331 21.2341 32.9886 21.4869 32.7332C21.7395 32.4779 21.8805 32.1328 21.8805 31.7741C21.8805 31.4153 21.7395 31.0702 21.4869 30.815C21.2341 30.5595 20.8902 30.4151 20.5304 30.4151Z" fill="#1738CF" stroke="#1738CF"/>
<path d="M23.551 4.94303V4.50822C29.2323 4.72668 33.7776 9.27192 33.996 14.9533H33.5641C33.3472 9.52728 29.0281 5.19282 23.551 4.94303ZM23.551 7.81131V7.37877C25.5141 7.50025 27.3726 8.33393 28.7715 9.73281C30.1703 11.1317 31.004 12.9901 31.1255 14.9533H30.6929C30.6383 14.1186 30.4473 13.2974 30.1263 12.5226C29.7415 11.5934 29.1774 10.7492 28.4662 10.038C27.7551 9.3269 26.9108 8.76279 25.9817 8.37793C25.2069 8.05698 24.3856 7.86592 23.551 7.81131ZM23.551 10.6844V10.2506C24.7537 10.3661 25.8852 10.8959 26.7468 11.7575C27.6084 12.6191 28.1381 13.7506 28.2537 14.9533H27.8198C27.7058 13.8653 27.2221 12.8433 26.4416 12.0627C25.661 11.2821 24.6389 10.7984 23.551 10.6844Z" fill="#1738CF" stroke="#1738CF"/>
</svg>
