<svg width="41" height="40" viewBox="0 0 41 40" fill="none" xmlns="http://www.w3.org/2000/svg">
<path d="M16.6333 12.5001V17.5001H24.9667V12.5001H16.6333ZM15.3833 1.66675C15.7149 1.66675 16.0328 1.79844 16.2672 2.03286C16.5016 2.26729 16.6333 2.58523 16.6333 2.91675V5.00008H28.7167C29.2091 5.00008 29.6968 5.09708 30.1517 5.28553C30.6067 5.47399 31.0201 5.75021 31.3683 6.09843C31.7165 6.44665 31.9928 6.86005 32.1812 7.31502C32.3697 7.76999 32.4667 8.25762 32.4667 8.75008V23.3334C32.4667 23.6478 32.3483 23.9507 32.135 24.1817L29.9667 26.5317V32.9167C29.9667 33.9113 29.5716 34.8651 28.8683 35.5684C28.1651 36.2717 27.2112 36.6667 26.2167 36.6667H15.385C14.3904 36.6667 13.4366 36.2717 12.7333 35.5684C12.0301 34.8651 11.635 33.9113 11.635 32.9167V26.5301L9.46666 24.1801C9.25313 23.9498 9.13413 23.6475 9.13333 23.3334V8.75008C9.13333 7.75552 9.52842 6.80169 10.2317 6.09843C10.9349 5.39517 11.8888 5.00008 12.8833 5.00008H14.1333V2.91675C14.1333 2.58523 14.265 2.26729 14.4994 2.03286C14.7339 1.79844 15.0518 1.66675 15.3833 1.66675ZM14.1333 11.2501V18.7501C14.1333 19.4401 14.6933 20.0001 15.3833 20.0001H26.2167C26.5482 20.0001 26.8661 19.8684 27.1005 19.634C27.335 19.3995 27.4667 19.0816 27.4667 18.7501V11.2501C27.4667 10.9186 27.335 10.6006 27.1005 10.3662C26.8661 10.1318 26.5482 10.0001 26.2167 10.0001H15.3833C15.0518 10.0001 14.7339 10.1318 14.4994 10.3662C14.265 10.6006 14.1333 10.9186 14.1333 11.2501ZM16.6333 24.5834C16.6333 25.2734 17.1933 25.8334 17.8833 25.8334H23.7167C24.0482 25.8334 24.3661 25.7017 24.6005 25.4673C24.835 25.2329 24.9667 24.9149 24.9667 24.5834C24.9667 24.2519 24.835 23.934 24.6005 23.6995C24.3661 23.4651 24.0482 23.3334 23.7167 23.3334H17.8833C17.5518 23.3334 17.2339 23.4651 16.9994 23.6995C16.765 23.934 16.6333 24.2519 16.6333 24.5834Z" fill="#1738CF"/>
</svg>
