<svg width="41" height="40" viewBox="0 0 41 40" fill="none" xmlns="http://www.w3.org/2000/svg">
<path fill-rule="evenodd" clip-rule="evenodd" d="M12.862 7.29886V4.98633H11.3109C9.60485 4.98633 8.22186 6.36932 8.22186 8.07532V30.9247C8.22186 32.6307 9.60485 34.0137 11.3109 34.0137L30.617 34.0137C32.323 34.0137 33.706 32.6307 33.706 30.9247L33.706 8.07532C33.706 6.36931 32.323 4.98633 30.617 4.98633H29.066V7.29886C29.066 8.57836 28.0288 9.6156 26.7493 9.6156L15.1787 9.6156C13.8992 9.6156 12.862 8.57836 12.862 7.29886ZM14.4064 7.29886V4.98633H27.5216V7.29886C27.5216 7.72536 27.1758 8.0711 26.7493 8.0711L15.1787 8.0711C14.7522 8.0711 14.4064 7.72536 14.4064 7.29886ZM16.9771 22.4262C16.1708 22.2649 15.4305 21.868 14.8499 21.2857C13.697 20.1328 13.3767 18.4766 13.8617 17.0309L16.4786 19.657L19.059 17.0767L16.4146 14.4323C17.8786 13.9199 19.5622 14.231 20.7334 15.4022C21.9596 16.6283 22.2615 18.4217 21.6393 19.9315L27.6052 24.8909C28.5111 25.7876 28.5111 27.2516 27.6052 28.1575C26.6993 29.0633 25.2353 29.0633 24.3295 28.1575L19.3792 22.1916C18.6194 22.5058 17.7834 22.5875 16.9771 22.4262ZM25.3177 27.1784C25.6745 27.5353 26.2601 27.5353 26.6261 27.1784C26.7977 27.0039 26.8938 26.7689 26.8938 26.5242C26.8938 26.2794 26.7977 26.0445 26.6261 25.8699C26.2601 25.5039 25.6745 25.5039 25.3177 25.8699C24.9517 26.2268 24.9517 26.8124 25.3177 27.1784Z" fill="#1738CF"/>
<path d="M15.1787 8.07104C14.7522 8.07104 14.4064 7.89817 14.4064 7.68492L14.4064 5.37233C14.4064 5.15908 14.7522 4.9862 15.1787 4.9862L26.7493 4.9862C27.1758 4.9862 27.5216 5.15908 27.5216 5.37233L27.5216 7.68492C27.5216 7.89817 27.1758 8.07104 26.7493 8.07104L15.1787 8.07104Z" fill="#1738CF"/>
</svg>
