<svg width="48" height="48" viewBox="0 0 48 48" fill="none" xmlns="http://www.w3.org/2000/svg">
<path d="M33.5 24.0001H40.764C41.1048 24.0003 41.4399 24.0875 41.7375 24.2536C42.035 24.4196 42.2853 24.659 42.4644 24.9489C42.6435 25.2388 42.7456 25.5697 42.7609 25.9101C42.7762 26.2505 42.7043 26.5892 42.552 26.8941L38.484 35.0321C38.3298 35.3405 38.0984 35.6037 37.8124 35.7963C37.5264 35.9889 37.1955 36.1043 36.8517 36.1312C36.508 36.1582 36.1631 36.0958 35.8506 35.9502C35.538 35.8046 35.2685 35.5806 35.068 35.3001L30.82 29.3601M4 38.0001H11.52C12.2655 38.0053 12.9975 37.802 13.6336 37.4133C14.2697 37.0246 14.7846 36.4658 15.12 35.8001L18 30.0001M4 42.0001V34.0001M14 18.0001H14.02M34.212 18.1061C34.686 18.3434 35.0465 18.7591 35.2141 19.262C35.3817 19.7649 35.3428 20.3138 35.106 20.7881L28.894 33.2101C28.7765 33.445 28.6139 33.6546 28.4154 33.8267C28.2169 33.9988 27.9864 34.1301 27.7372 34.2131C27.488 34.2961 27.2248 34.3292 26.9628 34.3105C26.7007 34.2918 26.4449 34.2217 26.21 34.1041L7.22 24.6001C5.84067 23.9053 4.79271 22.6924 4.30544 21.2269C3.81817 19.7613 3.93127 18.1624 4.62 16.7801L7.38 11.2001C7.724 10.5145 8.19968 9.90344 8.77987 9.40174C9.36007 8.90005 10.0334 8.51756 10.7614 8.27612C11.4895 8.03468 12.2579 7.93902 13.0229 7.9946C13.788 8.05019 14.5345 8.25593 15.22 8.60008L34.212 18.1061Z" stroke="#1738CF" stroke-width="4" stroke-linecap="round" stroke-linejoin="round"/>
</svg>
