<svg width="48" height="48" viewBox="0 0 48 48" fill="none" xmlns="http://www.w3.org/2000/svg">
<path d="M8 44C6.9 44 5.95867 43.6087 5.176 42.826C4.39333 42.0433 4.00133 41.1013 4 40V34C4 33.4333 4.192 32.9587 4.576 32.576C4.96 32.1933 5.43467 32.0013 6 32C6.56533 31.9987 7.04067 32.1907 7.426 32.576C7.81133 32.9613 8.00267 33.436 8 34V40H14C14.5667 40 15.042 40.192 15.426 40.576C15.81 40.96 16.0013 41.4347 16 42C15.9987 42.5653 15.8067 43.0407 15.424 43.426C15.0413 43.8113 14.5667 44.0027 14 44H8ZM4 14V8C4 6.9 4.392 5.95867 5.176 5.176C5.96 4.39333 6.90133 4.00133 8 4H14C14.5667 4 15.042 4.192 15.426 4.576C15.81 4.96 16.0013 5.43467 16 6C15.9987 6.56533 15.8067 7.04067 15.424 7.426C15.0413 7.81133 14.5667 8.00267 14 8H8V14C8 14.5667 7.808 15.042 7.424 15.426C7.04 15.81 6.56533 16.0013 6 16C5.43467 15.9987 4.96 15.8067 4.576 15.424C4.192 15.0413 4 14.5667 4 14ZM24 28C22.9 28 21.9587 27.6087 21.176 26.826C20.3933 26.0433 20.0013 25.1013 20 24C20 22.8667 20.392 21.9167 21.176 21.15C21.96 20.3833 22.9013 20 24 20C25.1333 20 26.0833 20.3833 26.85 21.15C27.6167 21.9167 28 22.8667 28 24C28 25.1 27.6167 26.042 26.85 26.826C26.0833 27.61 25.1333 28.0013 24 28ZM40 44H34C33.4333 44 32.9587 43.808 32.576 43.424C32.1933 43.04 32.0013 42.5653 32 42C31.9987 41.4347 32.1907 40.96 32.576 40.576C32.9613 40.192 33.436 40 34 40H40V34C40 33.4333 40.192 32.9587 40.576 32.576C40.96 32.1933 41.4347 32.0013 42 32C42.5653 31.9987 43.0407 32.1907 43.426 32.576C43.8113 32.9613 44.0027 33.436 44 34V40C44 41.1 43.6087 42.042 42.826 42.826C42.0433 43.61 41.1013 44.0013 40 44ZM40 14V8H34C33.4333 8 32.9587 7.808 32.576 7.424C32.1933 7.04 32.0013 6.56533 32 6C31.9987 5.43467 32.1907 4.96 32.576 4.576C32.9613 4.192 33.436 4 34 4H40C41.1 4 42.042 4.392 42.826 5.176C43.61 5.96 44.0013 6.90133 44 8V14C44 14.5667 43.808 15.042 43.424 15.426C43.04 15.81 42.5653 16.0013 42 16C41.4347 15.9987 40.96 15.8067 40.576 15.424C40.192 15.0413 40 14.5667 40 14ZM12.35 26C11.75 26 11.2833 26.2587 10.95 26.776C10.6167 27.2933 10.5333 27.8513 10.7 28.45C11.3333 30.55 12.4333 32.3667 14 33.9C15.5667 35.4333 17.4 36.55 19.5 37.25C20.1 37.45 20.6587 37.3587 21.176 36.976C21.6933 36.5933 21.9513 36.0847 21.95 35.45C21.95 34.9833 21.8 34.558 21.5 34.174C21.2 33.79 20.8167 33.5153 20.35 33.35C19.05 32.85 17.892 32.1167 16.876 31.15C15.86 30.1833 15.118 29.0333 14.65 27.7C14.4833 27.2 14.192 26.792 13.776 26.476C13.36 26.16 12.8847 26.0013 12.35 26ZM12.4 22C11.8 22 11.3333 21.742 11 21.226C10.6667 20.71 10.5833 20.1513 10.75 19.55C11.3833 17.45 12.492 15.6333 14.076 14.1C15.66 12.5667 17.5013 11.45 19.6 10.75C20.2 10.55 20.75 10.642 21.25 11.026C21.75 11.41 22 11.918 22 12.55C22 13.0167 21.85 13.442 21.55 13.826C21.25 14.21 20.8667 14.4847 20.4 14.65C19.1 15.15 17.942 15.8833 16.926 16.85C15.91 17.8167 15.168 18.9667 14.7 20.3C14.5333 20.8 14.242 21.2087 13.826 21.526C13.41 21.8433 12.9347 22.0013 12.4 22ZM35.7 26C36.3 26 36.7667 26.2587 37.1 26.776C37.4333 27.2933 37.5167 27.8513 37.35 28.45C36.7167 30.55 35.6087 32.3667 34.026 33.9C32.4433 35.4333 30.6013 36.55 28.5 37.25C27.9 37.45 27.35 37.3587 26.85 36.976C26.35 36.5933 26.1 36.0847 26.1 35.45C26.1 34.9833 26.242 34.558 26.526 34.174C26.81 33.79 27.1847 33.5153 27.65 33.35C28.95 32.85 30.1167 32.1167 31.15 31.15C32.1833 30.1833 32.9333 29.0333 33.4 27.7C33.5667 27.2 33.8587 26.792 34.276 26.476C34.6933 26.16 35.168 26.0013 35.7 26ZM35.7 22C36.3 22 36.7667 21.742 37.1 21.226C37.4333 20.71 37.5167 20.1513 37.35 19.55C36.7167 17.45 35.6087 15.6333 34.026 14.1C32.4433 12.5667 30.6013 11.45 28.5 10.75C27.9 10.55 27.35 10.642 26.85 11.026C26.35 11.41 26.1 11.918 26.1 12.55C26.1 13.0167 26.25 13.442 26.55 13.826C26.85 14.21 27.2333 14.4847 27.7 14.65C29 15.15 30.1587 15.8833 31.176 16.85C32.1933 17.8167 32.9347 18.9667 33.4 20.3C33.5667 20.8 33.8587 21.2087 34.276 21.526C34.6933 21.8433 35.168 22.0013 35.7 22Z" fill="#1738CF"/>
</svg>
