<svg width="48" height="48" viewBox="0 0 48 48" fill="none" xmlns="http://www.w3.org/2000/svg">
<path d="M9.80001 32.2001C2.00001 24.4001 2.00001 11.6 9.80001 3.80005M15.6 9.40005C13.7026 11.366 12.515 13.9086 12.2253 16.6254C11.9355 19.3422 12.56 22.0781 14 24.4" stroke="#1738CF" stroke-width="4" stroke-linecap="round" stroke-linejoin="round"/>
<path d="M24 22C26.2091 22 28 20.2091 28 18C28 15.7909 26.2091 14 24 14C21.7909 14 20 15.7909 20 18C20 20.2091 21.7909 22 24 22Z" stroke="#1738CF" stroke-width="4" stroke-linecap="round" stroke-linejoin="round"/>
<path d="M32.4 9.60005C36.4 13.6 36.92 19.8201 34 24.5401M38.2 3.80005C40.0541 5.65032 41.525 7.8481 42.5287 10.2676C43.5323 12.687 44.0489 15.2807 44.0489 17.9C44.0489 20.5194 43.5323 23.1131 42.5287 25.5325C41.525 27.952 40.0541 30.1498 38.2 32M19 36H29M16 44L24 22L32 44" stroke="#1738CF" stroke-width="4" stroke-linecap="round" stroke-linejoin="round"/>
</svg>
