<svg width="33" height="32" viewBox="0 0 33 32" fill="none" xmlns="http://www.w3.org/2000/svg">
<path d="M26.2197 6.54658C24.9973 5.31182 23.5413 4.33281 21.9365 3.66665C20.3318 3.0005 18.6105 2.66053 16.873 2.66658C9.59301 2.66658 3.65968 8.59992 3.65968 15.8799C3.65968 18.2132 4.27301 20.4799 5.41968 22.4799L3.55301 29.3333L10.553 27.4933C12.4863 28.5466 14.6597 29.1066 16.873 29.1066C24.153 29.1066 30.0863 23.1733 30.0863 15.8932C30.0863 12.3599 28.713 9.03992 26.2197 6.54658ZM16.873 26.8666C14.8997 26.8666 12.9663 26.3333 11.273 25.3333L10.873 25.0933L6.71301 26.1866L7.81968 22.1333L7.55301 21.7199C6.45667 19.9692 5.87453 17.9456 5.87301 15.8799C5.87301 9.82658 10.8063 4.89325 16.8597 4.89325C19.793 4.89325 22.553 6.03992 24.6197 8.11992C25.643 9.13854 26.4539 10.3501 27.0055 11.6845C27.5571 13.0188 27.8384 14.4494 27.833 15.8932C27.8597 21.9466 22.9263 26.8666 16.873 26.8666ZM22.8997 18.6532C22.5663 18.4932 20.9397 17.6933 20.6463 17.5732C20.3397 17.4666 20.1263 17.4132 19.8997 17.7332C19.673 18.0666 19.0463 18.8132 18.8597 19.0266C18.673 19.2533 18.473 19.2799 18.1397 19.1066C17.8063 18.9466 16.7397 18.5866 15.4863 17.4666C14.4997 16.5866 13.8463 15.5066 13.6463 15.1733C13.4597 14.8399 13.6197 14.6666 13.793 14.4932C13.9397 14.3466 14.1263 14.1066 14.2863 13.9199C14.4463 13.7332 14.513 13.5866 14.6197 13.3732C14.7263 13.1466 14.673 12.9599 14.593 12.7999C14.513 12.6399 13.8463 11.0133 13.5797 10.3466C13.313 9.70658 13.033 9.78658 12.833 9.77325H12.193C11.9663 9.77325 11.6197 9.85325 11.313 10.1866C11.0197 10.5199 10.1663 11.3199 10.1663 12.9466C10.1663 14.5733 11.353 16.1466 11.513 16.3599C11.673 16.5866 13.8463 19.9199 17.153 21.3466C17.9397 21.6933 18.553 21.8933 19.033 22.0399C19.8197 22.2933 20.5397 22.2532 21.113 22.1732C21.753 22.0799 23.073 21.3732 23.3397 20.5999C23.6197 19.8266 23.6197 19.1733 23.5263 19.0266C23.433 18.8799 23.233 18.8132 22.8997 18.6532Z" fill="#1738CF"/>
</svg>
