<svg width="342" height="72" viewBox="0 0 342 72" fill="none" xmlns="http://www.w3.org/2000/svg">
<g clip-path="url(#clip0_112_1157)">
<path d="M46.8491 71.0575H37.4802L37.4225 48.4899L26.238 71.0575H20.6157L14.9358 48.4899L9.37351 71.0575H0L9.48655 31.5625H18.8554L25.3567 55.0701L37.5955 31.5625H46.9644L46.8468 71.0575H46.8491Z" fill="black"/>
<path d="M95.1631 51.3125C93.7581 62.7132 83.2173 72 71.5621 72C59.9069 72 51.5924 62.7132 52.9973 51.3125C54.4023 39.9118 64.9432 30.625 76.5984 30.625C88.2535 30.625 96.5681 39.9118 95.1631 51.3125ZM85.7942 51.3125C86.6132 44.5541 82.0453 39.0876 75.604 39.0876C69.1628 39.0876 63.1899 44.5541 62.3685 51.3125C61.5495 58.071 66.1175 63.5375 72.5587 63.5375C79 63.5375 84.9729 58.071 85.7942 51.3125Z" fill="black"/>
<path d="M129.42 31.5649L128.424 40.0275H118.118L114.312 71.0576H104.943L108.749 40.0275H98.4414L99.438 31.5649H129.42Z" fill="black"/>
<path d="M171.058 51.3125C169.653 62.7132 159.112 72 147.457 72C135.802 72 127.487 62.7132 128.892 51.3125C130.297 39.9118 140.838 30.625 152.493 30.625C164.148 30.625 172.463 39.9118 171.058 51.3125ZM161.689 51.3125C162.508 44.5541 157.94 39.0876 151.499 39.0876C145.057 39.0876 139.085 44.5541 138.263 51.3125C137.444 58.071 142.012 63.5375 148.453 63.5375C154.895 63.5375 160.868 58.071 161.689 51.3125Z" fill="black"/>
<path d="M178.71 71.0575L183.511 31.5625H187.26L182.459 71.0575H178.71Z" fill="black"/>
<path d="M198.512 37.7329L194.599 71.0575H190.85L195.655 31.5625H198.835L218.816 64.2481L222.825 31.5625H226.574L221.769 71.0575H218.867L198.512 37.7329Z" fill="black"/>
<path d="M262.821 51.2475C261.473 62.1782 253.159 70.995 240.334 70.995H229.5L234.301 31.5H245.135C258.253 31.5 264.168 40.3168 262.821 51.2475ZM259.072 51.2475C260.184 41.9607 254.914 35.2624 245.017 35.2624H237.579L233.715 67.2349H241.153C251.05 67.2349 257.96 60.5343 259.072 51.2498V51.2475Z" fill="black"/>
<path d="M307.99 51.3127C306.643 62.4796 296.512 71.5302 285.386 71.5302C274.259 71.5302 266.352 62.4796 267.7 51.3127C269.047 40.1459 279.177 31.0952 290.304 31.0952C301.431 31.0952 309.337 40.1459 307.99 51.3127ZM304.241 51.3127C305.353 42.144 298.972 34.8576 289.836 34.8576C280.7 34.8576 272.561 42.1463 271.449 51.3127C270.337 60.4815 276.718 67.7678 285.854 67.7678C294.99 67.7678 303.129 60.4791 304.241 51.3127Z" fill="black"/>
<path d="M271.188 22.3501C271.497 22.1556 271.712 21.8523 271.792 21.4958C271.873 21.1392 271.811 20.7734 271.617 20.4631C271.423 20.1529 271.121 19.9375 270.766 19.8565C270.664 19.8334 270.563 19.8218 270.461 19.8218C270.207 19.8218 269.958 19.8936 269.737 20.0325C269.1 20.4353 268.909 21.2804 269.308 21.9195C269.709 22.5585 270.554 22.7507 271.188 22.3501Z" fill="#1738CF"/>
<path d="M280.656 17.6265C281.254 17.7631 281.87 17.6589 282.389 17.3302C283.461 16.6541 283.784 15.2278 283.108 14.1512C282.781 13.6303 282.273 13.2668 281.674 13.1301C281.503 13.0908 281.33 13.0723 281.159 13.0723C280.732 13.0723 280.312 13.1927 279.941 13.4265C279.422 13.7553 279.06 14.2647 278.924 14.8667C278.787 15.4686 278.894 16.0845 279.219 16.6055C279.546 17.1264 280.054 17.4899 280.654 17.6265H280.656Z" fill="#1738CF"/>
<path d="M292.604 16.5359C293.37 16.7119 294.159 16.5753 294.824 16.1562C296.196 15.288 296.612 13.4612 295.746 12.0836C295.188 11.1921 294.228 10.7036 293.25 10.7036C292.715 10.7036 292.173 10.8495 291.688 11.1574C291.024 11.5765 290.56 12.2317 290.385 13.0027C290.21 13.7714 290.346 14.5633 290.763 15.2301C291.181 15.8969 291.834 16.3623 292.602 16.5383L292.604 16.5359Z" fill="#1738CF"/>
<path d="M305.891 12.975C305.644 12.9194 305.397 12.8916 305.15 12.8916C304.534 12.8916 303.93 13.0653 303.394 13.4033C302.647 13.8756 302.125 14.6119 301.929 15.4778C301.733 16.3438 301.883 17.2329 302.356 17.983C303.327 19.5343 305.376 19.9997 306.919 19.0249C307.667 18.5526 308.188 17.8163 308.384 16.9504C308.58 16.0844 308.431 15.1954 307.958 14.4452C307.487 13.695 306.753 13.1718 305.891 12.975Z" fill="#1738CF"/>
<path d="M317.283 25.7745C318.076 25.2721 318.63 24.4918 318.838 23.5726C319.045 22.6534 318.886 21.7088 318.385 20.9123C317.885 20.1158 317.107 19.5601 316.191 19.3517C315.276 19.1434 314.334 19.3031 313.541 19.8056C311.9 20.8405 311.407 23.0216 312.438 24.6678C313.469 26.314 315.642 26.8094 317.283 25.7745Z" fill="#1738CF"/>
<path d="M322.017 35.9593C322.921 36.1654 323.851 36.0056 324.635 35.5101C326.255 34.4867 326.744 32.3312 325.724 30.7058C325.064 29.6546 323.934 29.0781 322.78 29.0781C322.148 29.0781 321.509 29.2495 320.937 29.613C320.153 30.1085 319.606 30.8818 319.401 31.7894C319.195 32.697 319.354 33.6301 319.848 34.4173C320.342 35.2045 321.112 35.7532 322.017 35.9593Z" fill="#1738CF"/>
<path d="M326.37 40.9189C325.766 40.9189 325.154 41.0833 324.608 41.4306C323.858 41.9053 323.334 42.6439 323.138 43.5121C322.942 44.3804 323.092 45.2741 323.565 46.0266C324.038 46.7791 324.774 47.3046 325.639 47.5014C326.504 47.6983 327.394 47.5478 328.144 47.0731C328.894 46.5985 329.418 45.8599 329.614 44.9916C329.81 44.1234 329.66 43.2297 329.187 42.4772C328.557 41.4723 327.475 40.9189 326.37 40.9189Z" fill="#1738CF"/>
<path d="M326.289 53.5697C325.53 53.396 324.751 53.5303 324.093 53.9448C322.734 54.8038 322.324 56.6097 323.179 57.9758C324.035 59.3418 325.837 59.7516 327.196 58.8926C327.854 58.4759 328.313 57.8276 328.486 57.0682C328.659 56.3064 328.525 55.5238 328.112 54.864C327.699 54.2041 327.053 53.7433 326.294 53.5697H326.289Z" fill="#1738CF"/>
<path d="M283.187 26.3C283.547 26.0731 283.655 25.5939 283.429 25.2327C283.203 24.8715 282.726 24.7626 282.366 24.9895C282.006 25.2165 281.897 25.6957 282.123 26.0569C282.349 26.4181 282.827 26.5269 283.189 26.3H283.187Z" fill="#1738CF"/>
<path d="M291.116 24.8595C291.681 24.503 291.852 23.7482 291.497 23.1809C291.266 22.8128 290.872 22.6113 290.468 22.6113C290.246 22.6113 290.025 22.6715 289.824 22.7989C289.55 22.9725 289.361 23.2411 289.287 23.5583C289.215 23.8755 289.271 24.202 289.444 24.4775C289.799 25.0447 290.549 25.2161 291.116 24.8595Z" fill="#1738CF"/>
<path d="M299.175 25.8832C299.885 25.4341 300.098 24.4917 299.652 23.7786C299.435 23.4336 299.099 23.1928 298.704 23.1025C298.31 23.0122 297.901 23.0817 297.557 23.2993C296.847 23.7462 296.635 24.6908 297.08 25.404C297.527 26.1148 298.466 26.3301 299.175 25.8832Z" fill="#1738CF"/>
<path d="M312.246 34.7716C312.636 34.5262 312.909 34.1418 313.01 33.6903C313.112 33.2388 313.033 32.7758 312.789 32.3845C312.281 31.5764 311.215 31.3333 310.41 31.8404C309.605 32.3474 309.363 33.4194 309.868 34.2275C310.375 35.0355 311.441 35.2786 312.246 34.7716Z" fill="#1738CF"/>
<path d="M313.638 41.3009C313.873 41.676 314.24 41.9376 314.671 42.0372C315.103 42.1367 315.545 42.0603 315.922 41.8242C316.295 41.588 316.556 41.2199 316.655 40.7869C316.752 40.3539 316.678 39.9094 316.443 39.532C316.129 39.0296 315.589 38.7563 315.038 38.7563C314.736 38.7563 314.431 38.8374 314.159 39.011C313.785 39.2472 313.525 39.6153 313.425 40.0483C313.326 40.4813 313.402 40.9258 313.638 41.3032V41.3009Z" fill="#1738CF"/>
<path d="M317.073 49.5042C317.416 49.2865 317.654 48.9508 317.744 48.5526C317.834 48.1543 317.765 47.7468 317.548 47.4042C317.26 46.9457 316.766 46.6934 316.261 46.6934C315.984 46.6934 315.705 46.7698 315.455 46.9272C315.112 47.1448 314.874 47.4806 314.784 47.8788C314.694 48.2747 314.763 48.6845 314.98 49.0272C315.426 49.738 316.364 49.9534 317.073 49.5042Z" fill="#1738CF"/>
<path d="M315.476 57.052C315.739 56.8853 315.924 56.626 315.993 56.3204C316.062 56.0148 316.009 55.6999 315.843 55.4359C315.677 55.172 315.419 54.9868 315.114 54.9173C315.026 54.8965 314.939 54.8872 314.853 54.8872C314.636 54.8872 314.422 54.9474 314.233 55.0678C313.688 55.4128 313.522 56.1375 313.866 56.6862C314.032 56.9502 314.29 57.1354 314.595 57.2049C314.899 57.2743 315.213 57.2211 315.476 57.0544V57.052Z" fill="#1738CF"/>
<path d="M306.472 29.2772C306.857 29.0341 307.122 28.6567 307.224 28.2122C307.326 27.7676 307.247 27.3115 307.005 26.9272C306.763 26.5428 306.387 26.2743 305.944 26.1724C305.501 26.0705 305.046 26.1492 304.663 26.3923C303.87 26.8924 303.632 27.9459 304.13 28.7424C304.629 29.5389 305.681 29.7774 306.472 29.2772Z" fill="#1738CF"/>
<path d="M263.243 17.4716C263.517 17.2979 263.709 17.027 263.78 16.7098C263.852 16.3926 263.796 16.0638 263.623 15.7883C263.45 15.5128 263.18 15.3206 262.864 15.2488C262.774 15.228 262.682 15.2188 262.592 15.2188C262.366 15.2188 262.142 15.2836 261.946 15.4063C261.378 15.7652 261.208 16.52 261.563 17.0895C261.736 17.3651 262.006 17.5572 262.322 17.629C262.64 17.7008 262.966 17.6452 263.24 17.4716H263.243Z" fill="#1738CF"/>
<path d="M273.62 10.192C274.026 9.9373 274.307 9.53675 274.413 9.06905C274.519 8.60135 274.439 8.11976 274.183 7.71226C273.657 6.87411 272.549 6.61942 271.712 7.14732C270.877 7.67522 270.623 8.78658 271.149 9.62705C271.675 10.4652 272.782 10.7199 273.62 10.192Z" fill="#1738CF"/>
<path d="M284.975 1.63234C284.793 1.59066 284.608 1.56982 284.423 1.56982C283.964 1.56982 283.515 1.69948 283.118 1.94954C281.969 2.67424 281.623 4.20236 282.345 5.3554C282.696 5.91339 283.24 6.30237 283.881 6.44824C284.523 6.5941 285.18 6.48297 285.739 6.13104C286.297 5.7791 286.682 5.23269 286.827 4.58902C286.973 3.94536 286.862 3.28549 286.511 2.72518C286.161 2.16718 285.616 1.7782 284.975 1.63234Z" fill="#1738CF"/>
<path d="M296.974 0C296.445 0 295.91 0.143551 295.43 0.44686C294.074 1.30353 293.663 3.1095 294.517 4.47091C295.37 5.83233 297.17 6.24446 298.526 5.38779C299.883 4.53111 300.294 2.72515 299.44 1.36373C298.889 0.483905 297.94 0 296.974 0Z" fill="#1738CF"/>
<path d="M309.358 2.20886C308.77 2.20886 308.177 2.36862 307.644 2.70666C306.137 3.65826 305.683 5.66102 306.631 7.17294C307.579 8.68485 309.575 9.14097 311.081 8.18937C311.81 7.72862 312.318 7.01086 312.509 6.16577C312.701 5.32298 312.553 4.45473 312.094 3.72077C311.48 2.7437 310.431 2.20654 309.358 2.20654V2.20886Z" fill="#1738CF"/>
<path d="M322.337 14.3853C323.957 13.3619 324.446 11.2086 323.426 9.58328C322.933 8.79607 322.162 8.24733 321.26 8.04127C320.356 7.83521 319.426 7.99265 318.642 8.49044C317.022 9.51382 316.533 11.6671 317.553 13.2925C318.572 14.9178 320.718 15.4087 322.337 14.3853Z" fill="#1738CF"/>
<path d="M327.618 17.43C326.024 18.4372 325.542 20.558 326.545 22.1579C327.032 22.9335 327.789 23.473 328.679 23.6744C329.568 23.8782 330.486 23.7208 331.256 23.2345C332.029 22.746 332.567 21.9866 332.768 21.0928C332.971 20.1991 332.814 19.2799 332.327 18.5066C331.323 16.9067 329.21 16.4228 327.616 17.43H327.618Z" fill="#1738CF"/>
<path d="M338.787 29.2217C338.053 28.0525 336.796 27.4111 335.511 27.4111C334.807 27.4111 334.096 27.6033 333.46 28.0062C332.585 28.5572 331.979 29.4185 331.75 30.428C331.522 31.4375 331.697 32.4771 332.246 33.3523C332.795 34.2298 333.651 34.8387 334.659 35.0679C335.665 35.2972 336.701 35.1212 337.573 34.5702C339.375 33.431 339.919 31.0346 338.787 29.224V29.2217Z" fill="#1738CF"/>
<path d="M338.978 40.5741C338.736 40.5185 338.494 40.4907 338.251 40.4907C337.647 40.4907 337.054 40.6621 336.53 40.9908C335.797 41.4539 335.287 42.1763 335.095 43.0237C334.904 43.8711 335.051 44.744 335.513 45.4803C335.974 46.2165 336.694 46.7282 337.538 46.9204C338.383 47.1126 339.253 46.9644 339.986 46.5013C340.72 46.0383 341.23 45.3159 341.421 44.4685C341.613 43.6211 341.465 42.7482 341.004 42.0119C340.542 41.2756 339.822 40.7639 338.978 40.5718V40.5741Z" fill="#1738CF"/>
<path d="M338.021 53.5585C337.806 53.5098 337.589 53.4844 337.375 53.4844C336.837 53.4844 336.309 53.6349 335.845 53.9289C334.5 54.7786 334.092 56.5707 334.941 57.9206C335.351 58.5758 335.99 59.0296 336.743 59.2009C337.495 59.3723 338.268 59.2403 338.918 58.8282C339.571 58.416 340.023 57.7747 340.194 57.0199C340.365 56.2651 340.233 55.4895 339.822 54.8365C339.412 54.1813 338.773 53.7275 338.021 53.5561V53.5585Z" fill="#1738CF"/>
</g>
<defs>
<clipPath id="clip0_112_1157">
<rect width="341.502" height="72" fill="white"/>
</clipPath>
</defs>
</svg>
